PathFileType	4	(X/Y/Z)	c:/Users/goper/Files/vsCode/490R/osim_files/C04/C04_SSWS_05.trc
DataRate	CameraRate	NumFrames	NumMarkers	Units                	OrigDataRate	OrigDataStartFrame	OrigNumFrames
250.00	250.00	6	36	mm	250.0	2201	3521
                Frame#	Time	LPSIS			LASIS			LTH1			LTH2			LTH3			LTH4			LLFE			LMFE			LSH1			LSH2			LSH3			LSH4			LLMAL			LMMAL			LCAL			LMTP5			LTOE			LMTP1			RPSIS			RASIS			RTH1			RTH2			RTH3			RTH4			RLFE			RMFE			RSH1			RSH2			RSH3			RSH4			RLMAL			RMMAL			RCAL			RMTP1			RTOE			RMTP5		
		X1	Y1	Z1	X2	Y2	Z2	X3	Y3	Z3	X4	Y4	Z4	X5	Y5	Z5	X6	Y6	Z6	X7	Y7	Z7	X8	Y8	Z8	X9	Y9	Z9	X10	Y10	Z10	X11	Y11	Z11	X12	Y12	Z12	X13	Y13	Z13	X14	Y14	Z14	X15	Y15	Z15	X16	Y16	Z16	X17	Y17	Z17	X18	Y18	Z18	X19	Y19	Z19	X20	Y20	Z20	X21	Y21	Z21	X22	Y22	Z22	X23	Y23	Z23	X24	Y24	Z24	X25	Y25	Z25	X26	Y26	Z26	X27	Y27	Z27	X28	Y28	Z28	X29	Y29	Z29	X30	Y30	Z30	X31	Y31	Z31	X32	Y32	Z32	X33	Y33	Z33	X34	Y34	Z34	X35	Y35	Z35	X36	Y36	Z36

2201	8.80000	-1367.64026	956.62274	270.16675	-1549.06116	941.54279	328.71808	-1497.35168	684.90820	400.30569	-1527.06812	632.66742	385.93329	-1557.41980	720.08954	408.93292	-1594.76697	668.25256	388.87302	-1644.54773	465.80966	360.24652	-1654.91309	458.66681	246.23206	-1624.11499	352.87582	371.44635	0.00000	0.00000	0.00000	-1686.69446	358.69669	365.03995	-1701.52478	312.59317	362.85229	-1736.70691	77.01084	350.59146	-1734.45862	105.61629	264.88089	-1684.56873	32.85944	296.37000	-1876.94080	82.12115	370.45093	-1885.57275	122.80791	324.31219	-1875.83936	87.10908	270.07208	-1364.82690	961.70636	195.14409	0.00000	0.00000	0.00000	-1404.46533	720.63354	50.85608	-1397.87390	660.72089	65.83662	-1470.57007	719.11633	55.98763	-1475.13062	658.62799	71.11765	-1411.79797	441.91968	114.35033	-1397.89270	445.19873	223.64297	-1311.40222	331.38660	92.49267	-1297.43933	290.26929	97.73795	-1371.54504	311.28345	104.11751	-1346.89221	272.60895	106.22404	-1249.06494	85.10648	130.29147	-1258.17468	87.63277	216.64218	-1178.82019	64.49180	168.84445	-1374.31787	27.79085	225.91042	-1403.53857	41.49550	190.77715	-1374.97766	14.47935	126.08135
2202	8.80400	-1372.11462	956.16687	270.76379	-1554.02051	941.02795	328.73376	-1501.99817	684.53748	400.80234	-1531.54248	632.23688	386.27347	-1562.20398	719.56964	409.20157	-1599.33594	667.65997	388.95569	-1648.10559	464.94315	360.64636	-1658.17773	457.79568	246.50287	-1639.18982	342.96820	353.92728	0.00000	0.00000	0.00000	-1691.30798	358.07608	365.14371	-1706.61047	312.13242	363.04941	-1744.20215	76.84139	350.81189	-1741.16467	105.46397	265.13763	-1691.92798	32.40970	296.85297	-1883.94763	83.31422	370.24371	-1888.84656	125.16647	322.55240	-1882.64697	88.03373	269.83475	-1369.27905	961.23877	195.67380	0.00000	0.00000	0.00000	-1408.00757	720.34705	51.27265	-1401.43359	660.42181	66.27370	-1474.16968	718.67578	56.23170	-1478.70044	658.09503	71.34416	-1414.63892	441.75940	114.44003	-1401.04956	444.91437	223.87448	-1313.57715	331.69827	92.68062	-1299.57214	290.49295	97.94612	-1373.71594	311.53827	103.98166	-1348.77136	272.64014	106.28863	-1249.62390	85.60330	130.37325	-1258.71753	88.28957	216.59525	-1179.20422	65.55068	168.80687	-1374.62805	27.92088	225.74373	-1403.66382	41.46452	190.73662	-1374.99243	14.47377	126.08799
2203	8.80800	-1376.63635	955.82556	271.27811	-1558.80530	940.47266	328.64133	-1506.56042	684.23853	401.23682	-1535.88245	631.95819	386.48434	-1567.07471	719.10455	409.40564	-1603.87085	667.03723	388.84683	-1651.67236	464.11206	360.95667	-1661.34021	457.00519	246.76253	-1643.90137	341.97577	354.17764	0.00000	0.00000	0.00000	-1695.78772	357.47400	365.34399	-1711.56006	311.62192	363.15247	-1750.67065	76.96777	351.09241	-1747.43335	105.31584	265.30624	-1698.86230	31.88618	297.36679	-1890.48938	84.31821	369.99039	-1895.07312	126.18648	322.05942	-1889.02637	88.84904	269.42493	-1373.57959	960.78857	196.23488	0.00000	0.00000	0.00000	-1411.62158	720.10992	51.72677	-1404.97717	660.07220	66.69250	-1477.90576	718.20587	56.49143	-1482.25781	657.61072	71.56832	-1417.64954	441.39185	114.70191	-1404.05786	444.68701	224.17242	-1315.80212	332.07199	92.81630	-1300.93335	290.82599	98.20271	-1375.55640	310.80206	103.87363	-1350.70032	272.63443	106.47247	-1250.67468	87.87817	130.36040	-1259.15540	88.96162	216.60170	-1179.54468	66.62677	168.84134	-1374.90991	28.04358	225.56500	-1403.73767	41.44557	190.67905	-1374.98999	14.49753	126.07113
2204	8.81200	-1381.16150	955.44843	271.83475	-1563.65222	940.07489	328.64969	-1511.21899	683.91968	401.74567	-1542.34277	628.68756	396.81348	-1569.50745	720.04681	399.71112	-1608.42004	666.52765	388.98474	-1655.21179	463.38510	361.31628	-1664.65222	456.26385	246.99464	-1648.38416	340.80307	354.16837	0.00000	0.00000	0.00000	-1700.27051	356.89008	365.47791	-1716.39624	311.09497	363.28235	-1756.99500	76.92706	351.32388	-1753.27368	105.08298	265.46976	-1705.29663	31.49748	297.78394	-1896.89465	85.19351	369.50012	-1901.20642	126.89721	321.59558	-1895.09216	89.42008	269.02136	-1378.08704	960.36371	196.74179	0.00000	0.00000	0.00000	-1415.34937	719.79236	52.18046	-1408.59265	659.85083	67.11493	-1481.60693	717.77100	56.79963	-1485.78625	657.15460	71.82070	-1420.51746	441.07187	114.93607	-1407.25305	444.38934	224.40376	-1318.04810	332.44644	93.01920	-1303.34644	290.98691	98.40150	-1377.91162	311.43658	103.72771	-1352.47925	272.73053	106.48051	-1251.18774	88.60318	130.25798	-1259.76282	89.72302	216.63945	-1179.88599	67.86488	168.84785	-1375.16028	28.24622	225.39648	-1403.80591	41.41643	190.60466	-1375.03149	14.41345	126.10652
2205	8.81600	-1383.68469	955.28284	271.87601	-1568.59204	939.59729	328.86255	-1516.05383	683.64093	402.18930	-1547.14758	628.08679	397.11658	-1574.39917	719.42529	399.85013	-1613.18250	665.92340	389.00015	-1658.90833	462.51779	361.62051	-1668.05945	455.48184	247.11571	-1652.90002	339.69580	354.46780	0.00000	0.00000	0.00000	-1704.68518	356.21561	365.57089	-1721.07776	310.44638	363.38828	-1763.19849	76.69535	351.48825	-1758.82629	104.75104	265.58627	-1711.40259	30.89408	298.25162	-1902.85425	85.74849	369.04089	-1906.93164	127.40562	321.01932	-1900.77417	89.76092	268.67410	-1382.52173	959.87976	197.30069	0.00000	0.00000	0.00000	-1419.22644	719.54614	52.62966	-1412.19885	659.64136	67.52262	-1485.38049	717.29785	57.16254	-1489.38391	656.68280	72.05416	-1423.71033	440.76331	115.23426	-1410.59778	444.10739	224.63292	-1320.50073	332.81714	93.17062	-1306.02246	291.15637	98.64593	-1380.48279	312.18286	103.68945	-1354.48535	272.70746	106.70101	-1251.64075	89.43614	130.17876	-1260.33215	90.49882	216.66153	-1180.36389	69.01944	168.79776	-1375.52319	28.35244	225.22676	-1403.92053	41.37098	190.55986	-1375.04614	14.41449	126.09036
2206	8.82000	-1388.35400	954.94434	272.42752	-1573.50793	939.10687	328.85638	-1520.71558	683.39429	402.66559	-1551.98071	627.53632	397.52481	-1579.32275	718.85663	399.94308	-1617.98315	665.33936	389.05679	-1662.55725	461.82925	361.98074	-1671.58167	454.69867	247.42000	-1657.39722	338.72607	354.44522	0.00000	0.00000	0.00000	-1709.05005	355.53180	365.62347	-1725.74463	309.87305	363.48920	-1768.85205	76.46464	351.57718	-1763.86694	104.36626	265.69141	-1716.92383	30.40534	298.63098	-1908.43799	86.17784	368.62976	-1912.23853	127.70156	320.48257	-1906.00061	89.92549	268.27252	-1387.03552	959.47247	197.83463	0.00000	0.00000	0.00000	-1423.10754	719.25366	53.14557	-1415.83984	659.41211	68.02996	-1489.31287	716.76068	57.51629	-1493.12280	656.21533	72.38195	-1426.69104	440.48761	115.35142	-1414.16980	443.71405	224.81369	-1322.86609	333.23343	93.30968	-1308.70251	291.35791	98.92047	-1383.02832	313.07446	103.45650	-1356.51953	272.86581	106.79301	-1251.71277	90.64570	129.51376	-1261.09509	91.14160	216.42439	-1180.75537	70.28905	168.81958	-1375.75354	28.01711	224.85327	-1404.06775	41.32014	190.52281	-1374.43884	15.04162	125.12211
